<svg width="121" height="19" viewBox="0 0 121 19" fill="none" xmlns="http://www.w3.org/2000/svg">
<path d="M13.269 16.56C13.269 17.2 12.869 17.52 12.069 17.52C11.2823 17.52 10.889 17.2 10.889 16.56V1.48C10.889 0.839999 11.2823 0.519999 12.069 0.519999C12.869 0.519999 13.269 0.839999 13.269 1.48V7.04H14.449C14.649 7.04 14.809 7.09333 14.929 7.2V1.48C14.929 0.839999 15.3223 0.519999 16.109 0.519999C16.909 0.519999 17.309 0.839999 17.309 1.48V16.56C17.309 17.2 16.909 17.52 16.109 17.52C15.3223 17.52 14.929 17.2 14.929 16.56V8.9C14.809 9.00667 14.649 9.06 14.449 9.06H13.269V16.56ZM1.90898 15.54C1.17565 15.8467 0.662318 15.6867 0.368984 15.06C0.0889844 14.4333 0.215651 14.0067 0.748984 13.78C2.21565 13.1533 3.58898 12.1067 4.86898 10.64C6.14898 9.17333 6.78898 7.5 6.78898 5.62V3.18C6.78898 3.12667 6.78232 3.08 6.76898 3.04C6.75565 3 6.70232 2.98 6.60898 2.98H1.44898C0.955651 2.98 0.702318 2.64667 0.688984 1.98C0.688984 1.3 0.942318 0.959999 1.44898 0.959999H7.90898C8.38898 0.959999 8.71565 1.08667 8.88898 1.34C9.07565 1.58 9.16898 1.85333 9.16898 2.16V6.04C9.16898 7.18667 8.64898 8.77333 7.60898 10.8C6.58232 12.8133 4.68232 14.3933 1.90898 15.54ZM38.2212 14C38.2212 14.3067 38.1278 14.5867 37.9412 14.84C37.7678 15.08 37.4412 15.2 36.9612 15.2H28.9012C28.8078 15.2 28.7545 15.22 28.7412 15.26C28.7278 15.3 28.7212 15.3467 28.7212 15.4V16.22C28.7212 16.2733 28.7278 16.32 28.7412 16.36C28.7545 16.4 28.8078 16.42 28.9012 16.42H37.9812C38.4878 16.42 38.7345 16.7533 38.7212 17.42C38.7212 18.1 38.4745 18.44 37.9812 18.44H27.6012C27.1212 18.44 26.7878 18.3133 26.6012 18.06C26.4278 17.82 26.3412 17.5467 26.3412 17.24V14.38C26.3412 14.0733 26.4278 13.8 26.6012 13.56C26.7878 13.3067 27.1212 13.18 27.6012 13.18H35.6612C35.7545 13.18 35.8078 13.16 35.8212 13.12C35.8345 13.08 35.8412 13.0333 35.8412 12.98V12.16C35.8412 12.1067 35.8345 12.06 35.8212 12.02C35.8078 11.98 35.7545 11.96 35.6612 11.96H27.3012C26.8078 11.96 26.5545 11.6267 26.5412 10.96C26.5412 10.28 26.7945 9.94 27.3012 9.94H36.9612C37.4412 9.94 37.7678 10.0667 37.9412 10.32C38.1278 10.56 38.2212 10.8333 38.2212 11.14V14ZM20.6412 1.72C20.6412 1.08 21.0345 0.759999 21.8212 0.759999C22.6212 0.759999 23.0212 1.08 23.0212 1.72V9.74C23.0212 9.79333 23.0278 9.84 23.0412 9.88C23.0545 9.92 23.1078 9.94 23.2012 9.94H25.4212C25.9278 9.94 26.1745 10.28 26.1612 10.96C26.1612 11.6267 25.9145 11.96 25.4212 11.96H21.9012C21.4212 11.96 21.0878 11.84 20.9012 11.6C20.7278 11.3467 20.6412 11.0667 20.6412 10.76V1.72ZM27.6012 1.72C27.6012 1.08 27.9945 0.759999 28.7812 0.759999C29.5812 0.759999 29.9812 1.08 29.9812 1.72V8.38C29.9812 9.02 29.5812 9.34667 28.7812 9.36C27.9945 9.36 27.6012 9.03333 27.6012 8.38V6.06H24.0412C23.5478 6.06 23.2945 5.72667 23.2812 5.06C23.2812 4.38 23.5345 4.04 24.0412 4.04H27.6012V1.72ZM34.5812 8.64C34.5812 9.28 34.1812 9.6 33.3812 9.6C32.5945 9.6 32.2012 9.28 32.2012 8.64V1.48C32.2012 0.839999 32.5945 0.519999 33.3812 0.519999C34.1812 0.519999 34.5812 0.839999 34.5812 1.48V8.64ZM38.3212 4.86C38.3212 5.28667 38.1678 5.65333 37.8612 5.96C37.5678 6.25333 37.2078 6.4 36.7812 6.4C36.3545 6.4 35.9878 6.25333 35.6812 5.96C35.3878 5.65333 35.2412 5.28667 35.2412 4.86C35.2412 4.43333 35.3878 4.07333 35.6812 3.78C35.9878 3.47333 36.3545 3.32 36.7812 3.32C37.2078 3.32 37.5678 3.47333 37.8612 3.78C38.1678 4.07333 38.3212 4.43333 38.3212 4.86ZM52.8412 16.56C52.8412 17.2 52.4412 17.52 51.6412 17.52C50.8545 17.52 50.4612 17.2 50.4612 16.56V8.54H48.9612C48.8812 10.18 48.5212 11.6133 47.8812 12.84C47.1478 14.24 46.0545 14.94 44.6012 14.94C43.1212 14.94 42.0145 14.2467 41.2812 12.86C40.5478 11.4733 40.1812 9.8 40.1812 7.84C40.1812 5.88 40.5478 4.20667 41.2812 2.82C42.0145 1.43333 43.1212 0.74 44.6012 0.74C46.0545 0.74 47.1478 1.44 47.8812 2.84C48.4412 3.90667 48.7878 5.13333 48.9212 6.52H48.9612H50.4612V1.48C50.4612 0.839999 50.8545 0.519999 51.6412 0.519999C52.4412 0.519999 52.8412 0.839999 52.8412 1.48V16.56ZM56.8012 16.56C56.8012 17.2 56.4012 17.52 55.6012 17.52C54.8145 17.52 54.4212 17.2 54.4212 16.56V1.48C54.4212 0.839999 54.8145 0.519999 55.6012 0.519999C56.4012 0.519999 56.8012 0.839999 56.8012 1.48V16.56ZM46.6212 7.84C46.6212 6.41333 46.4678 5.21333 46.1612 4.24C45.8678 3.25333 45.3478 2.76 44.6012 2.76C43.8278 2.76 43.2945 3.25333 43.0012 4.24C42.7078 5.21333 42.5612 6.41333 42.5612 7.84C42.5612 9.26667 42.7145 10.4733 43.0212 11.46C43.3278 12.4333 43.8545 12.92 44.6012 12.92C45.3345 12.92 45.8545 12.4333 46.1612 11.46C46.4678 10.4733 46.6212 9.26667 46.6212 7.84ZM80.8695 16.56C80.8695 17.2 80.4695 17.52 79.6695 17.52C78.8828 17.52 78.4895 17.2 78.4895 16.56V1.48C78.4895 0.839999 78.8828 0.519999 79.6695 0.519999C80.4695 0.519999 80.8695 0.839999 80.8695 1.48V16.56ZM75.4695 13.7C75.4695 14.34 75.0695 14.6667 74.2695 14.68C73.4828 14.68 73.0895 14.3533 73.0895 13.7V3.18C73.0895 3.12667 73.0828 3.08 73.0695 3.04C73.0561 3 73.0028 2.98 72.9095 2.98H68.6895C68.5961 2.98 68.5428 3 68.5295 3.04C68.5161 3.08 68.5095 3.12667 68.5095 3.18V12.46C68.5095 12.5133 68.5161 12.56 68.5295 12.6C68.5428 12.64 68.5961 12.66 68.6895 12.66H71.9095C72.4161 12.66 72.6628 13 72.6495 13.68C72.6495 14.3467 72.4028 14.68 71.9095 14.68H67.3895C66.9095 14.68 66.5761 14.56 66.3895 14.32C66.2161 14.0667 66.1295 13.7867 66.1295 13.48V2.16C66.1295 1.85333 66.2161 1.58 66.3895 1.34C66.5761 1.08667 66.9095 0.959999 67.3895 0.959999H74.2095C74.6895 0.959999 75.0161 1.08667 75.1895 1.34C75.3761 1.58 75.4695 1.85333 75.4695 2.16V13.7ZM95.5041 13.18C95.8241 13.8067 95.6175 14.2733 94.8841 14.58C94.1641 14.8867 93.6508 14.7333 93.3441 14.12L89.7641 7.52L86.1841 14.12C85.8641 14.7467 85.3375 14.9133 84.6041 14.62C83.8841 14.3133 83.6908 13.8333 84.0241 13.18L88.3041 5.26H84.9841C84.4908 5.26 84.2375 4.92667 84.2241 4.26C84.2241 3.58 84.4775 3.24 84.9841 3.24H88.5641V1.28C88.5641 0.639999 88.9575 0.319999 89.7441 0.319999C90.5441 0.319999 90.9441 0.639999 90.9441 1.28V3.24H94.5441C95.0641 3.24 95.3175 3.58 95.3041 4.26C95.3041 4.92667 95.0508 5.26 94.5441 5.26H91.2241L95.5041 13.18ZM99.4241 16.56C99.4241 17.2 99.0241 17.52 98.2241 17.52C97.4375 17.52 97.0441 17.2 97.0441 16.56V1.48C97.0441 0.839999 97.4375 0.519999 98.2241 0.519999C99.0241 0.519999 99.4241 0.839999 99.4241 1.48V16.56ZM120.919 7.66C120.919 8.08667 120.765 8.45333 120.459 8.76C120.165 9.05333 119.805 9.2 119.379 9.2C118.952 9.2 118.585 9.05333 118.279 8.76C117.985 8.45333 117.839 8.08667 117.839 7.66C117.839 7.23333 117.985 6.87333 118.279 6.58C118.585 6.27333 118.952 6.12 119.379 6.12C119.805 6.12 120.165 6.27333 120.459 6.58C120.765 6.87333 120.919 7.23333 120.919 7.66ZM117.179 16.56C117.179 17.2 116.779 17.52 115.979 17.52C115.192 17.52 114.799 17.2 114.799 16.56V1.48C114.799 0.839999 115.192 0.519999 115.979 0.519999C116.779 0.519999 117.179 0.839999 117.179 1.48V16.56ZM103.239 2.16C103.239 1.85333 103.325 1.58 103.499 1.34C103.685 1.08667 104.019 0.959999 104.499 0.959999H111.779C112.285 0.959999 112.532 1.3 112.519 1.98C112.519 2.64667 112.272 2.98 111.779 2.98H105.799C105.705 2.98 105.652 3 105.639 3.04C105.625 3.08 105.619 3.12667 105.619 3.18V12.4C105.619 12.4533 105.632 12.5 105.659 12.54C105.699 12.58 105.745 12.6 105.799 12.6C106.545 12.6267 107.692 12.4267 109.239 12C110.799 11.5733 112.025 11.1133 112.919 10.62C113.519 10.2867 113.952 10.4667 114.219 11.16C114.499 11.8533 114.319 12.3533 113.679 12.66C112.812 13.0733 111.545 13.54 109.879 14.06C108.225 14.5667 106.432 14.8533 104.499 14.92C104.165 14.9333 103.872 14.8133 103.619 14.56C103.365 14.3067 103.239 14.0267 103.239 13.72V2.16Z" fill="black"/>
</svg>
