<svg width="190" height="37" viewBox="0 0 190 37" fill="none" xmlns="http://www.w3.org/2000/svg">
<g filter="url(#filter0_d)">
<path d="M24.1535 25.34C24.1535 26.3 23.5535 26.78 22.3535 26.78C21.1735 26.78 20.5835 26.3 20.5835 25.34V2.72C20.5835 1.76 21.1735 1.28 22.3535 1.28C23.5535 1.28 24.1535 1.76 24.1535 2.72V11.06H25.9235C26.2235 11.06 26.4635 11.14 26.6435 11.3V2.72C26.6435 1.76 27.2335 1.28 28.4135 1.28C29.6135 1.28 30.2135 1.76 30.2135 2.72V25.34C30.2135 26.3 29.6135 26.78 28.4135 26.78C27.2335 26.78 26.6435 26.3 26.6435 25.34V13.85C26.4635 14.01 26.2235 14.09 25.9235 14.09H24.1535V25.34ZM7.11348 23.81C6.01348 24.27 5.24348 24.03 4.80348 23.09C4.38348 22.15 4.57348 21.51 5.37348 21.17C7.57348 20.23 9.63348 18.66 11.5535 16.46C13.4735 14.26 14.4335 11.75 14.4335 8.93V5.27C14.4335 5.19 14.4235 5.12 14.4035 5.06C14.3835 5 14.3035 4.97 14.1635 4.97H6.42348C5.68348 4.97 5.30348 4.47 5.28348 3.47C5.28348 2.45 5.66348 1.94 6.42348 1.94H16.1135C16.8335 1.94 17.3235 2.13 17.5835 2.51C17.8635 2.87 18.0035 3.28 18.0035 3.74V9.56C18.0035 11.28 17.2235 13.66 15.6635 16.7C14.1235 19.72 11.2735 22.09 7.11348 23.81ZM61.5818 21.5C61.5818 21.96 61.4418 22.38 61.1618 22.76C60.9018 23.12 60.4118 23.3 59.6918 23.3H47.6018C47.4618 23.3 47.3818 23.33 47.3618 23.39C47.3418 23.45 47.3318 23.52 47.3318 23.6V24.83C47.3318 24.91 47.3418 24.98 47.3618 25.04C47.3818 25.1 47.4618 25.13 47.6018 25.13H61.2218C61.9818 25.13 62.3518 25.63 62.3318 26.63C62.3318 27.65 61.9618 28.16 61.2218 28.16H45.6518C44.9318 28.16 44.4318 27.97 44.1518 27.59C43.8918 27.23 43.7618 26.82 43.7618 26.36V22.07C43.7618 21.61 43.8918 21.2 44.1518 20.84C44.4318 20.46 44.9318 20.27 45.6518 20.27H57.7418C57.8818 20.27 57.9618 20.24 57.9818 20.18C58.0018 20.12 58.0118 20.05 58.0118 19.97V18.74C58.0118 18.66 58.0018 18.59 57.9818 18.53C57.9618 18.47 57.8818 18.44 57.7418 18.44H45.2018C44.4618 18.44 44.0818 17.94 44.0618 16.94C44.0618 15.92 44.4418 15.41 45.2018 15.41H59.6918C60.4118 15.41 60.9018 15.6 61.1618 15.98C61.4418 16.34 61.5818 16.75 61.5818 17.21V21.5ZM35.2118 3.08C35.2118 2.12 35.8018 1.64 36.9818 1.64C38.1818 1.64 38.7818 2.12 38.7818 3.08V15.11C38.7818 15.19 38.7918 15.26 38.8118 15.32C38.8318 15.38 38.9118 15.41 39.0518 15.41H42.3818C43.1418 15.41 43.5118 15.92 43.4918 16.94C43.4918 17.94 43.1218 18.44 42.3818 18.44H37.1018C36.3818 18.44 35.8818 18.26 35.6018 17.9C35.3418 17.52 35.2118 17.1 35.2118 16.64V3.08ZM45.6518 3.08C45.6518 2.12 46.2418 1.64 47.4218 1.64C48.6218 1.64 49.2218 2.12 49.2218 3.08V13.07C49.2218 14.03 48.6218 14.52 47.4218 14.54C46.2418 14.54 45.6518 14.05 45.6518 13.07V9.59H40.3118C39.5718 9.59 39.1918 9.09 39.1718 8.09C39.1718 7.07 39.5518 6.56 40.3118 6.56H45.6518V3.08ZM56.1218 13.46C56.1218 14.42 55.5218 14.9 54.3218 14.9C53.1418 14.9 52.5518 14.42 52.5518 13.46V2.72C52.5518 1.76 53.1418 1.28 54.3218 1.28C55.5218 1.28 56.1218 1.76 56.1218 2.72V13.46ZM61.7318 7.79C61.7318 8.43 61.5018 8.98 61.0418 9.44C60.6018 9.88 60.0618 10.1 59.4218 10.1C58.7818 10.1 58.2318 9.88 57.7718 9.44C57.3318 8.98 57.1118 8.43 57.1118 7.79C57.1118 7.15 57.3318 6.61 57.7718 6.17C58.2318 5.71 58.7818 5.48 59.4218 5.48C60.0618 5.48 60.6018 5.71 61.0418 6.17C61.5018 6.61 61.7318 7.15 61.7318 7.79ZM83.5118 25.34C83.5118 26.3 82.9118 26.78 81.7118 26.78C80.5318 26.78 79.9418 26.3 79.9418 25.34V13.31H77.6918C77.5718 15.77 77.0318 17.92 76.0718 19.76C74.9718 21.86 73.3318 22.91 71.1518 22.91C68.9318 22.91 67.2718 21.87 66.1718 19.79C65.0718 17.71 64.5218 15.2 64.5218 12.26C64.5218 9.32 65.0718 6.81 66.1718 4.73C67.2718 2.65 68.9318 1.61 71.1518 1.61C73.3318 1.61 74.9718 2.66 76.0718 4.76C76.9118 6.36 77.4318 8.2 77.6318 10.28H77.6918H79.9418V2.72C79.9418 1.76 80.5318 1.28 81.7118 1.28C82.9118 1.28 83.5118 1.76 83.5118 2.72V25.34ZM89.4518 25.34C89.4518 26.3 88.8518 26.78 87.6518 26.78C86.4718 26.78 85.8818 26.3 85.8818 25.34V2.72C85.8818 1.76 86.4718 1.28 87.6518 1.28C88.8518 1.28 89.4518 1.76 89.4518 2.72V25.34ZM74.1818 12.26C74.1818 10.12 73.9518 8.32 73.4918 6.86C73.0518 5.38 72.2718 4.64 71.1518 4.64C69.9918 4.64 69.1918 5.38 68.7518 6.86C68.3118 8.32 68.0918 10.12 68.0918 12.26C68.0918 14.4 68.3218 16.21 68.7818 17.69C69.2418 19.15 70.0318 19.88 71.1518 19.88C72.2518 19.88 73.0318 19.15 73.4918 17.69C73.9518 16.21 74.1818 14.4 74.1818 12.26ZM125.554 25.34C125.554 26.3 124.954 26.78 123.754 26.78C122.574 26.78 121.984 26.3 121.984 25.34V2.72C121.984 1.76 122.574 1.28 123.754 1.28C124.954 1.28 125.554 1.76 125.554 2.72V25.34ZM117.454 21.05C117.454 22.01 116.854 22.5 115.654 22.52C114.474 22.52 113.884 22.03 113.884 21.05V5.27C113.884 5.19 113.874 5.12 113.854 5.06C113.834 5 113.754 4.97 113.614 4.97H107.284C107.144 4.97 107.064 5 107.044 5.06C107.024 5.12 107.014 5.19 107.014 5.27V19.19C107.014 19.27 107.024 19.34 107.044 19.4C107.064 19.46 107.144 19.49 107.284 19.49H112.114C112.874 19.49 113.244 20 113.224 21.02C113.224 22.02 112.854 22.52 112.114 22.52H105.334C104.614 22.52 104.114 22.34 103.834 21.98C103.574 21.6 103.444 21.18 103.444 20.72V3.74C103.444 3.28 103.574 2.87 103.834 2.51C104.114 2.13 104.614 1.94 105.334 1.94H115.564C116.284 1.94 116.774 2.13 117.034 2.51C117.314 2.87 117.454 3.28 117.454 3.74V21.05ZM147.506 20.27C147.986 21.21 147.676 21.91 146.576 22.37C145.496 22.83 144.726 22.6 144.266 21.68L138.896 11.78L133.526 21.68C133.046 22.62 132.256 22.87 131.156 22.43C130.076 21.97 129.786 21.25 130.286 20.27L136.706 8.39H131.726C130.986 8.39 130.606 7.89 130.586 6.89C130.586 5.87 130.966 5.36 131.726 5.36H137.096V2.42C137.096 1.46 137.686 0.979998 138.866 0.979998C140.066 0.979998 140.666 1.46 140.666 2.42V5.36H146.066C146.846 5.36 147.226 5.87 147.206 6.89C147.206 7.89 146.826 8.39 146.066 8.39H141.086L147.506 20.27ZM153.386 25.34C153.386 26.3 152.786 26.78 151.586 26.78C150.406 26.78 149.816 26.3 149.816 25.34V2.72C149.816 1.76 150.406 1.28 151.586 1.28C152.786 1.28 153.386 1.76 153.386 2.72V25.34ZM185.628 11.99C185.628 12.63 185.398 13.18 184.938 13.64C184.498 14.08 183.958 14.3 183.318 14.3C182.678 14.3 182.128 14.08 181.668 13.64C181.228 13.18 181.008 12.63 181.008 11.99C181.008 11.35 181.228 10.81 181.668 10.37C182.128 9.91 182.678 9.68 183.318 9.68C183.958 9.68 184.498 9.91 184.938 10.37C185.398 10.81 185.628 11.35 185.628 11.99ZM180.018 25.34C180.018 26.3 179.418 26.78 178.218 26.78C177.038 26.78 176.448 26.3 176.448 25.34V2.72C176.448 1.76 177.038 1.28 178.218 1.28C179.418 1.28 180.018 1.76 180.018 2.72V25.34ZM159.108 3.74C159.108 3.28 159.238 2.87 159.498 2.51C159.778 2.13 160.278 1.94 160.998 1.94H171.918C172.678 1.94 173.048 2.45 173.028 3.47C173.028 4.47 172.658 4.97 171.918 4.97H162.948C162.808 4.97 162.728 5 162.708 5.06C162.688 5.12 162.678 5.19 162.678 5.27V19.1C162.678 19.18 162.698 19.25 162.738 19.31C162.798 19.37 162.868 19.4 162.948 19.4C164.068 19.44 165.788 19.14 168.108 18.5C170.448 17.86 172.288 17.17 173.628 16.43C174.528 15.93 175.178 16.2 175.578 17.24C175.998 18.28 175.728 19.03 174.768 19.49C173.468 20.11 171.568 20.81 169.068 21.59C166.588 22.35 163.898 22.78 160.998 22.88C160.498 22.9 160.058 22.72 159.678 22.34C159.298 21.96 159.108 21.54 159.108 21.08V3.74Z" fill="black"/>
</g>
<defs>
<filter id="filter0_d" x="0.586578" y="0.979996" width="189.042" height="35.18" filterUnits="userSpaceOnUse" color-interpolation-filters="sRGB">
<feFlood flood-opacity="0" result="BackgroundImageFix"/>
<feColorMatrix in="SourceAlpha" type="matrix" values="0 0 0 0 0 0 0 0 0 0 0 0 0 0 0 0 0 0 127 0"/>
<feOffset dy="4"/>
<feGaussianBlur stdDeviation="2"/>
<feColorMatrix type="matrix" values="0 0 0 0 0 0 0 0 0 0 0 0 0 0 0 0 0 0 0.25 0"/>
<feBlend mode="normal" in2="BackgroundImageFix" result="effect1_dropShadow"/>
<feBlend mode="normal" in="SourceGraphic" in2="effect1_dropShadow" result="shape"/>
</filter>
</defs>
</svg>
